<?xml version="1.0" encoding="utf-8"?>
<!-- Generator: Adobe Illustrator 26.0.3, SVG Export Plug-In . SVG Version: 6.00 Build 0)  -->
<svg version="1.0" id="Layer_1" xmlns="http://www.w3.org/2000/svg" xmlns:xlink="http://www.w3.org/1999/xlink" x="0px" y="0px"
	 viewBox="0 0 297 208" style="enable-background:new 0 0 297 208;" xml:space="preserve">
<style type="text/css">
	.st0{fill:#FC4C02;}
</style>
<path class="st0" d="M194.3,108l9.9-34.6c0.2-0.8-0.6-1.6-1.7-1.6h-17.8L180.5,99l-4.3-27.2h-17.9c-1.1,0-1.9,0.8-1.7,1.6l9.9,34.6
	l-10.4,38.3c-0.2,0.8,0.6,1.6,1.7,1.6h18l4.6-28.7l4.6,28.7h18c1.1,0,1.9-0.8,1.7-1.6L194.3,108z"/>
<path class="st0" d="M84.5,74.8c0-2-1.1-3.1-3.4-3.1h-2.7v63.7H81c2.3,0,3.5-1,3.5-3.1L84.5,74.8z M82.9,59.4
	c13.4,0,21.3,5.5,21.3,16.3v56.1c0,5.3-1.9,9.2-5.7,12s-9,4.1-15.6,4.1H60.7c-0.8,0.1-1.6-0.5-1.7-1.3V60.7c0.1-0.8,0.9-1.4,1.7-1.3
	L82.9,59.4z"/>
<path class="st0" d="M129.1,84.8v13.6h5.8V84.8c0-2-0.9-3.1-2.7-3.1C130.1,81.8,129.1,82.8,129.1,84.8z M153.2,87.2v19.5
	c-0.1,0.8-0.9,1.4-1.7,1.3h-22.4v26.5c0,2,1.1,3.1,3.2,3.1c1.3,0.2,2.5-0.7,2.7-2c0-0.2,0-0.4,0-0.6v-22.4h16.5
	c0.8-0.1,1.6,0.5,1.7,1.3v20.9c0.1,4.1-2,8-5.5,10.2c-3.7,2.5-8.8,3.7-15.4,3.7c-14.2,0-22-5.7-22-16.1V89.3
	c0-12.4,7.3-18.2,21.9-18.2C146.2,71.1,153.2,76.4,153.2,87.2z"/>
<path class="st0" d="M236.3,71.8h-8.2V60.7c-0.1-0.8-0.9-1.4-1.7-1.3h-14.1l-3.5,12.2c0,0.1,0,0.2,0,0.3v62c-0.1,4.1,2,8,5.5,10.2
	c3.5,2.4,8.3,3.6,14.5,3.7h7.6c0.8,0.1,1.6-0.5,1.7-1.3v-11.1h-6.4c-2.3,0-3.5-1-3.5-3.1V84.1h9.9V73.1
	C237.9,72.2,237.1,71.6,236.3,71.8C236.3,71.8,236.3,71.8,236.3,71.8z"/>
</svg>
